<svg id="Layer_1" data-name="Layer 1" xmlns="http://www.w3.org/2000/svg" viewBox="0 0 300 120"><defs><style>.cls-1{fill:#a50034;}.cls-2{fill:#6b6c6b;}.cls-3{fill:#fff;}</style></defs><title>lg</title><path class="cls-1" d="M99.22,99.92a40,40,0,1,1,40-39.94A40,40,0,0,1,99.22,99.92Zm1.59-72.74-.44,0a31.71,31.71,0,0,0-6,.35,33.29,33.29,0,0,0-8.28,2.4,32.82,32.82,0,0,0-19.7,28.27,32.48,32.48,0,0,0,1.19,10.78A33,33,0,0,0,98.36,92.8a32.68,32.68,0,0,0,9.39-1,33.06,33.06,0,0,0,23-21.37,31.84,31.84,0,0,0,1.59-7.84c.09-1.23.06-2.47.08-3.71a4.2,4.2,0,0,0-.06-.61H109.08a13.77,13.77,0,0,0,0,3h20.25c-.05.67-.1,1.29-.16,1.9a28.84,28.84,0,0,1-2.92,10A30,30,0,0,1,69.89,54.5a29.06,29.06,0,0,1,9.56-16.8,29.68,29.68,0,0,1,20.77-7.56h.59Zm0,46.57V43.05c-1,0-2,0-3,0v33.7H109c0-1,0-2,0-3ZM87.05,52.17a4.63,4.63,0,1,0-4.64-4.58A4.61,4.61,0,0,0,87.05,52.17Z"/><path class="cls-2" d="M220.2,56.36c.46-.11,20.11-.11,20.54,0,0,.16,0,.34,0,.51q0,12,0,23.92a.85.85,0,0,1-.46.82,26.39,26.39,0,0,1-6.14,2.73,43.21,43.21,0,0,1-6.28,1.41,45.66,45.66,0,0,1-6.71.55,36.38,36.38,0,0,1-10-1.15A21,21,0,0,1,203,80.93a19.48,19.48,0,0,1-5.34-7.55,30.21,30.21,0,0,1-1.88-7.11,47,47,0,0,1-.45-7.21,37.14,37.14,0,0,1,1.45-10.27,22,22,0,0,1,4.38-8.17,20.13,20.13,0,0,1,8.75-5.78,28,28,0,0,1,5.5-1.28,38.29,38.29,0,0,1,6.33-.36,31,31,0,0,1,10,1.74,18.82,18.82,0,0,1,8,5.4c.32.38.62.78,1,1.22l-7.34,6.74-.47-.53a12.76,12.76,0,0,0-7.19-4.43,15.93,15.93,0,0,0-3.58-.43c-1.17,0-2.35,0-3.51.11a13.55,13.55,0,0,0-5.71,1.72,10.68,10.68,0,0,0-4.57,5.55,19.9,19.9,0,0,0-1.17,4.93,37.63,37.63,0,0,0-.26,5.41,28.92,28.92,0,0,0,.86,6.87,13.53,13.53,0,0,0,1.53,3.64,10.22,10.22,0,0,0,6.12,4.48,14.1,14.1,0,0,0,3.41.6c1.35,0,2.7.14,4.05.07a25,25,0,0,0,6.57-1.14c.55-.17.55-.17.55-.74V66.19c0-.31-.07-.35-.39-.37h-9.27C220.14,65.4,220.11,57.07,220.2,56.36Z"/><path class="cls-2" d="M193.72,85.52H157.26a2.29,2.29,0,0,1-.07-.36,3.27,3.27,0,0,1,0-.44V34.79c0-.25,0-.51,0-.79H169V75.55c.3,0,.54,0,.78,0h23.9C193.78,76,193.81,84.79,193.72,85.52Z"/><path class="cls-3" d="M100.81,27.18v3h-.59A29.68,29.68,0,0,0,79.45,37.7a29.06,29.06,0,0,0-9.56,16.8,30,30,0,0,0,56.4,18.68,28.84,28.84,0,0,0,2.92-10c.06-.61.11-1.23.16-1.9H109.12a13.77,13.77,0,0,1,0-3h23.26a4.2,4.2,0,0,1,.06.61c0,1.24,0,2.48-.08,3.71a31.84,31.84,0,0,1-1.59,7.84,33.06,33.06,0,0,1-23,21.37,32.68,32.68,0,0,1-9.39,1A33,33,0,0,1,67.58,68.94a32.48,32.48,0,0,1-1.19-10.78,32.82,32.82,0,0,1,19.7-28.27,33.29,33.29,0,0,1,8.28-2.4,31.71,31.71,0,0,1,6-.35Z"/><path class="cls-3" d="M100.82,73.75H109c0,1,0,2,0,3H97.81V43.07c1,0,2,0,3,0Z"/><path class="cls-3" d="M87.05,52.17a4.63,4.63,0,1,1,4.62-4.64A4.64,4.64,0,0,1,87.05,52.17Z"/></svg>